<svg width="451" height="411" viewBox="0 0 451 411" fill="none" xmlns="http://www.w3.org/2000/svg">
    <circle cx="305.5" cy="223.5" r="145.5" fill="#4F4E4D"/>
    <circle cx="139" cy="274" r="137" fill="#BBBBBB"/>
    <g clip-path="url(#clip0_2:4246)">
        <path d="M212.287 314.905H300.521V154.428H212.287V314.905Z" fill="#E9EDF7"/>
        <path d="M275.339 173.552H285.028V163.866H275.339V173.552Z" fill="#CDDDF2"/>
        <path d="M275.339 193.212H285.028V183.526H275.339V193.212Z" fill="#CDDDF2"/>
        <path d="M275.339 212.874H285.028V203.187H275.339V212.874Z" fill="#CDDDF2"/>
        <path d="M76.7933 314.905V112.544L104.727 88.2312V314.905H76.7933Z" fill="#E9EDF7"/>
        <path d="M91.9149 122.816H81.7862C81.0644 122.816 80.4771 122.232 80.4771 121.514C80.4771 120.795 81.0644 120.213 81.7862 120.213H91.9149C92.6357 120.213 93.2134 120.795 93.2134 121.514C93.2134 122.232 92.6357 122.816 91.9149 122.816Z" fill="#CDDDF2"/>
        <path d="M91.9149 128.518H81.7862C81.0644 128.518 80.4771 127.935 80.4771 127.216C80.4771 126.497 81.0644 125.915 81.7862 125.915H91.9149C92.6357 125.915 93.2134 126.497 93.2134 127.216C93.2134 127.935 92.6357 128.518 91.9149 128.518Z" fill="#CDDDF2"/>
        <path d="M91.9149 134.221H81.7862C81.0644 134.221 80.4771 133.638 80.4771 132.918C80.4771 132.199 81.0644 131.618 81.7862 131.618H91.9149C92.6357 131.618 93.2134 132.199 93.2134 132.918C93.2134 133.638 92.6357 134.221 91.9149 134.221Z" fill="#CDDDF2"/>
        <path d="M323.665 198.424V317.787H295.722V222.734L323.665 198.424Z" fill="#E9EDF7"/>
        <path d="M310.844 233.008H300.715C299.993 233.008 299.416 232.425 299.416 231.706C299.416 230.987 299.993 230.404 300.715 230.404H310.844C311.565 230.404 312.152 230.987 312.152 231.706C312.152 232.425 311.565 233.008 310.844 233.008Z" fill="#CDDDF2"/>
        <path d="M310.844 238.71H300.715C299.993 238.71 299.416 238.128 299.416 237.409C299.416 236.689 299.993 236.106 300.715 236.106H310.844C311.565 236.106 312.152 236.689 312.152 237.409C312.152 238.128 311.565 238.71 310.844 238.71Z" fill="#CDDDF2"/>
        <path d="M310.844 244.412H300.715C299.993 244.412 299.416 243.83 299.416 243.111C299.416 242.392 299.993 241.809 300.715 241.809H310.844C311.565 241.809 312.152 242.392 312.152 243.111C312.152 243.83 311.565 244.412 310.844 244.412Z" fill="#CDDDF2"/>
        <path d="M91.9149 139.923H81.7862C81.0644 139.923 80.4771 139.34 80.4771 138.621C80.4771 137.902 81.0644 137.319 81.7862 137.319H91.9149C92.6357 137.319 93.2134 137.902 93.2134 138.621C93.2134 139.34 92.6357 139.923 91.9149 139.923Z" fill="#CDDDF2"/>
        <path d="M48.3599 314.905H135.816V182.846H48.3599V314.905Z" fill="#E9EDF7"/>
        <path d="M65.5588 273.761C67.492 270.515 69.1843 265.053 65.3952 260.7C61.6052 256.346 65.9235 254.548 66.4818 248.99C67.0392 243.432 59.7677 242.957 60.1722 235.796C60.3444 232.881 58.3057 228.118 54.9482 227.798C50.774 227.398 48.3502 232.343 48.5418 235.796C48.9559 242.957 41.6836 243.432 42.2419 248.99C42.8001 254.548 47.1088 256.346 43.3284 260.7C39.5394 265.053 41.2317 270.515 43.1649 273.761C45.0895 277.005 40.8659 282.559 42.8001 287.389C44.714 292.192 48.9076 299.264 54.3618 299.102C59.8065 299.264 64 292.192 65.9235 287.389C67.8577 282.559 63.6342 277.005 65.5588 273.761Z" fill="#CDDDF2"/>
        <path d="M54.6308 239.514V317.455H54.2651V239.514C54.2651 239.383 54.3522 239.275 54.4479 239.275C54.5544 239.275 54.6308 239.383 54.6308 239.514Z" fill="#96B3DD"/>
        <path d="M54.448 256.598C54.4006 256.598 54.3425 256.575 54.3135 256.529L48.4073 249.153C48.3406 249.076 48.3599 248.961 48.4267 248.899C48.5041 248.836 48.6289 248.849 48.687 248.928L54.5931 256.303C54.6502 256.382 54.6405 256.494 54.5641 256.557C54.5351 256.584 54.4867 256.598 54.448 256.598Z" fill="#96B3DD"/>
        <path d="M54.448 294.573C54.4006 294.573 54.3522 294.552 54.3135 294.513C54.2467 294.439 54.2564 294.323 54.3328 294.257L61.3072 287.966C61.374 287.9 61.4988 287.906 61.5568 287.98C61.6246 288.054 61.6246 288.168 61.5472 288.236L54.5738 294.526C54.5351 294.557 54.4964 294.573 54.448 294.573Z" fill="#96B3DD"/>
        <path d="M54.448 244.653C54.4006 244.653 54.3522 244.633 54.3135 244.595L51.7939 241.896C51.7358 241.824 51.7358 241.71 51.8132 241.641C51.88 241.572 51.9951 241.576 52.0629 241.65L54.5835 244.348C54.6502 244.421 54.6502 244.535 54.5738 244.604C54.5351 244.637 54.4964 244.653 54.448 244.653Z" fill="#96B3DD"/>
        <path d="M54.448 264.49C54.4006 264.49 54.3522 264.467 54.3135 264.426C54.2467 264.35 54.2564 264.236 54.3328 264.17L60.8447 258.517C60.9221 258.45 61.0372 258.459 61.105 258.534C61.1717 258.61 61.162 258.725 61.0856 258.79L54.5641 264.444C54.5351 264.474 54.4867 264.49 54.448 264.49Z" fill="#96B3DD"/>
        <path d="M54.4479 275.018C54.4005 275.018 54.3521 275 54.3231 274.963L46.2147 266.609C46.1469 266.537 46.1469 266.422 46.2147 266.352C46.2911 266.282 46.4063 266.285 46.474 266.356L54.5833 274.711C54.6501 274.783 54.6501 274.897 54.5737 274.968C54.535 275.001 54.4963 275.018 54.4479 275.018Z" fill="#96B3DD"/>
        <path d="M345.164 273.761C347.107 270.515 348.79 265.053 345 260.7C341.22 256.346 345.53 254.548 346.087 248.99C346.645 243.432 339.373 242.957 339.787 235.796C339.951 232.881 337.911 228.118 334.564 227.798C330.379 227.398 327.955 232.343 328.158 235.796C328.561 242.957 321.29 243.432 321.847 248.99C322.405 254.548 326.725 256.346 322.935 260.7C319.145 265.053 320.838 270.515 322.771 273.761C324.704 277.005 320.472 282.559 322.405 287.389C324.329 292.192 328.523 299.264 333.967 299.102C339.421 299.264 343.616 292.192 345.53 287.389C347.463 282.559 343.24 277.005 345.164 273.761Z" fill="#CDDDF2"/>
        <path d="M334.247 239.514V317.455H333.881V239.514C333.881 239.383 333.958 239.275 334.064 239.275C334.16 239.275 334.247 239.383 334.247 239.514Z" fill="#96B3DD"/>
        <path d="M334.064 256.598C334.006 256.598 333.949 256.575 333.92 256.529L328.014 249.153C327.946 249.076 327.955 248.961 328.043 248.899C328.119 248.836 328.234 248.849 328.292 248.928L334.198 256.303C334.266 256.382 334.247 256.494 334.169 256.557C334.14 256.584 334.093 256.598 334.064 256.598Z" fill="#96B3DD"/>
        <path d="M334.064 294.573C334.006 294.573 333.958 294.552 333.92 294.513C333.862 294.439 333.862 294.323 333.939 294.257L340.912 287.966C340.99 287.9 341.105 287.906 341.172 287.98C341.239 288.054 341.23 288.168 341.153 288.236L334.179 294.526C334.14 294.557 334.102 294.573 334.064 294.573Z" fill="#96B3DD"/>
        <path d="M334.064 244.653C334.015 244.653 333.967 244.633 333.929 244.595L331.409 241.896C331.341 241.824 331.341 241.71 331.418 241.641C331.496 241.572 331.601 241.576 331.678 241.65L334.189 244.348C334.256 244.421 334.256 244.535 334.179 244.604C334.15 244.637 334.102 244.653 334.064 244.653Z" fill="#96B3DD"/>
        <path d="M334.064 264.49C334.006 264.49 333.958 264.467 333.92 264.426C333.852 264.35 333.862 264.236 333.939 264.17L340.451 258.517C340.527 258.45 340.643 258.459 340.71 258.534C340.778 258.61 340.768 258.725 340.691 258.79L334.179 264.444C334.14 264.474 334.103 264.49 334.064 264.49Z" fill="#96B3DD"/>
        <path d="M334.064 275.018C334.016 275.018 333.967 275 333.929 274.963L325.82 266.609C325.753 266.537 325.753 266.422 325.83 266.352C325.897 266.282 326.013 266.285 326.09 266.356L334.189 274.711C334.256 274.783 334.256 274.897 334.189 274.968C334.15 275.001 334.103 275.018 334.064 275.018Z" fill="#96B3DD"/>
        <path d="M256.15 314.905H130.131C122.34 314.905 116.019 308.586 116.019 300.794V31.8481C116.019 24.0551 122.34 17.7368 130.131 17.7368H256.15C263.941 17.7368 270.261 24.0551 270.261 31.8481V300.794C270.261 308.586 263.941 314.905 256.15 314.905Z" fill="#CDDDF2"/>
        <path d="M254.976 27.1214H221.618V33.1349C221.618 33.731 221.126 34.2138 220.511 34.2138H169.578C168.963 34.2138 168.472 33.731 168.472 33.1349V27.1214H131.304C127.024 27.1214 123.551 30.5021 123.551 34.6724V299.932C123.551 304.103 127.024 307.482 131.304 307.482H254.976C259.257 307.482 262.728 304.103 262.728 299.932V34.6724C262.728 30.5021 259.257 27.1214 254.976 27.1214Z" fill="#FEFEFE"/>
        <path d="M149.85 184.91H152.063V61.253H149.85V184.91Z" fill="#CDDDF2"/>
        <path d="M161.643 61.253C161.643 67.1543 156.852 71.9371 150.956 71.9371C145.059 71.9371 140.269 67.1543 140.269 61.253C140.269 55.3517 145.059 50.567 150.956 50.567C156.852 50.567 161.643 55.3517 161.643 61.253Z" fill="#E9EDF7"/>
        <path d="M150.841 65.4426C150.234 65.4426 149.677 65.1901 149.272 64.7373L146.165 61.2578C145.809 60.8466 145.838 60.2167 146.253 59.851C146.666 59.4852 147.291 59.521 147.656 59.9322L150.754 63.4126C150.763 63.4223 150.792 63.4533 150.85 63.4484C150.898 63.4455 150.927 63.4126 150.927 63.401L159.93 50.179C160.238 49.7242 160.864 49.6071 161.316 49.9168C161.768 50.2264 161.893 50.8466 161.575 51.3004L152.581 64.5225C152.216 65.0614 151.629 65.3952 150.975 65.4378C150.927 65.4407 150.88 65.4426 150.841 65.4426Z" fill="#ED970E"/>
        <path d="M161.643 101.859C161.643 107.759 156.852 112.544 150.956 112.544C145.059 112.544 140.269 107.759 140.269 101.859C140.269 95.9574 145.059 91.1736 150.956 91.1736C156.852 91.1736 161.643 95.9574 161.643 101.859Z" fill="#E9EDF7"/>
        <path d="M150.841 106.047C150.234 106.047 149.677 105.796 149.272 105.342L146.165 101.864C145.809 101.451 145.838 100.822 146.253 100.456C146.666 100.091 147.291 100.127 147.656 100.538L150.754 104.016C150.763 104.027 150.792 104.058 150.85 104.054C150.898 104.05 150.927 104.016 150.927 104.007L159.93 90.7847C160.238 90.3299 160.864 90.2128 161.316 90.5225C161.768 90.8311 161.893 91.4514 161.575 91.9061L152.581 105.128C152.216 105.667 151.629 106 150.975 106.044C150.927 106.046 150.88 106.047 150.841 106.047Z" fill="#ED970E"/>
        <path d="M161.643 142.463C161.643 148.365 156.852 153.148 150.956 153.148C145.059 153.148 140.269 148.365 140.269 142.463C140.269 136.562 145.059 131.778 150.956 131.778C156.852 131.778 161.643 136.562 161.643 142.463Z" fill="#E9EDF7"/>
        <path d="M161.643 182.527C161.643 188.429 156.852 193.212 150.956 193.212C145.059 193.212 140.269 188.429 140.269 182.527C140.269 176.626 145.059 171.842 150.956 171.842C156.852 171.842 161.643 176.626 161.643 182.527Z" fill="#E9EDF7"/>
        <path d="M231.996 57.5926H177.236C176.792 57.5926 176.428 57.2317 176.428 56.7866V54.8331C176.428 54.388 176.792 54.0271 177.236 54.0271H231.996C232.448 54.0271 232.804 54.388 232.804 54.8331V56.7866C232.804 57.2317 232.448 57.5926 231.996 57.5926Z" fill="#CDDDF2"/>
        <path d="M205.457 67.2259H177.236C176.792 67.2259 176.428 66.864 176.428 66.4199V64.4654C176.428 64.0203 176.792 63.6594 177.236 63.6594H205.457C205.9 63.6594 206.265 64.0203 206.265 64.4654V66.4199C206.265 66.864 205.9 67.2259 205.457 67.2259Z" fill="#CDDDF2"/>
        <path d="M231.996 98.4131H177.236C176.792 98.4131 176.428 98.0522 176.428 97.6071V95.6526C176.428 95.2065 176.792 94.8466 177.236 94.8466H231.996C232.448 94.8466 232.804 95.2065 232.804 95.6526V97.6071C232.804 98.0522 232.448 98.4131 231.996 98.4131Z" fill="#CDDDF2"/>
        <path d="M205.457 108.045H177.236C176.792 108.045 176.428 107.685 176.428 107.239V105.285C176.428 104.84 176.792 104.479 177.236 104.479H205.457C205.9 104.479 206.265 104.84 206.265 105.285V107.239C206.265 107.685 205.9 108.045 205.457 108.045Z" fill="#CDDDF2"/>
        <path d="M231.996 139.233H177.236C176.792 139.233 176.428 138.872 176.428 138.427V136.472C176.428 136.027 176.792 135.666 177.236 135.666H231.996C232.448 135.666 232.804 136.027 232.804 136.472V138.427C232.804 138.872 232.448 139.233 231.996 139.233Z" fill="#CDDDF2"/>
        <path d="M205.457 148.866H177.236C176.792 148.866 176.428 148.505 176.428 148.06V146.105C176.428 145.659 176.792 145.298 177.236 145.298H205.457C205.9 145.298 206.265 145.659 206.265 146.105V148.06C206.265 148.505 205.9 148.866 205.457 148.866Z" fill="#CDDDF2"/>
        <path d="M234.786 288.316H153.88C151.658 288.316 149.85 286.511 149.85 284.284V265.212C149.85 262.985 151.658 261.18 153.88 261.18H234.786C237.008 261.18 238.817 262.985 238.817 265.212V284.284C238.817 286.511 237.008 288.316 234.786 288.316Z" fill="#CDDDF2"/>
        <path d="M121.002 295.352L120.829 294.943L162.864 277.324L163.037 277.732L121.002 295.352Z" fill="#96B3DD"/>
        <path d="M162.941 295.176L120.753 277.91L120.925 277.5L163.115 294.766L162.941 295.176Z" fill="#96B3DD"/>
        <path d="M133.42 307.483L133.017 307.313L150.436 265.192L150.85 265.361L133.42 307.483Z" fill="#96B3DD"/>
        <path d="M150.456 307.474L132.998 265.37L133.401 265.202L150.87 307.304L150.456 307.474Z" fill="#96B3DD"/>
        <path d="M141.933 309.128C129.342 309.128 119.136 298.924 119.136 286.338C119.136 273.75 129.342 263.546 141.933 263.546C154.515 263.546 164.721 273.75 164.721 286.338C164.721 298.924 154.515 309.128 141.933 309.128ZM141.933 257.771C126.158 257.771 113.365 270.56 113.365 286.338C113.365 302.115 126.158 314.905 141.933 314.905C157.709 314.905 170.502 302.115 170.502 286.338C170.502 270.56 157.709 257.771 141.933 257.771Z" fill="#395476"/>
        <path d="M141.491 309.128H142.377V263.546H141.491V309.128Z" fill="#96B3DD"/>
        <path d="M119.136 286.78H164.719V285.895H119.136V286.78Z" fill="#96B3DD"/>
        <path d="M157.738 302.766L125.505 270.535L126.13 269.908L158.363 302.14L157.738 302.766Z" fill="#96B3DD"/>
        <path d="M126.13 302.766L125.505 302.14L157.738 269.908L158.363 270.535L126.13 302.766Z" fill="#96B3DD"/>
        <path d="M144.896 286.06C144.896 287.696 143.568 289.022 141.933 289.022C140.298 289.022 138.97 287.696 138.97 286.06C138.97 284.425 140.298 283.099 141.933 283.099C143.568 283.099 144.896 284.425 144.896 286.06Z" fill="#395476"/>
        <path d="M270.78 246.24C271.069 247.094 275.666 258.105 275.666 258.105L261.796 267.351L257.266 250.935L270.78 246.24Z" fill="#395476"/>
        <path d="M103.294 235.906H79.8906C79.4774 235.906 79.102 235.679 78.9094 235.317L75.3216 228.541C74.9849 227.898 75.341 227.109 76.0521 226.944C76.5437 226.831 77.0439 227.06 77.2839 227.505L80.2466 233.102C80.4392 233.465 80.8136 233.691 81.2181 233.691H103.294C103.899 233.691 104.4 234.188 104.4 234.799C104.4 235.41 103.899 235.906 103.294 235.906Z" fill="#4F4E4D"/>
        <path d="M107.343 228.097H65.8665C65.2124 228.097 64.6832 227.567 64.6832 226.915C64.6832 226.263 65.2124 225.734 65.8665 225.734H107.343C107.997 225.734 108.526 226.263 108.526 226.915C108.526 227.567 107.997 228.097 107.343 228.097Z" fill="#ED970E"/>
        <path d="M212.132 133.99C213.316 131.387 214.104 124.368 207.468 121.922C200.84 119.476 190.047 118.293 186.103 129.89C182.16 141.484 189.182 148.504 189.576 148.899C189.971 149.293 189.413 149.767 188.941 151.344C188.47 152.922 186.893 153.428 186.893 153.428L195.597 158.365C195.597 158.365 200.302 151.581 200.849 151.028C201.167 150.708 202.341 150.971 203.428 151.233C204.226 151.423 204.986 151.614 205.352 151.581C206.025 151.518 208.939 146.221 209.94 143.099C209.94 143.099 211.267 141.741 211.624 141.386C211.979 141.031 211.498 140.261 211.027 139.788C210.555 139.32 211.017 136.635 211.027 136.582C211.354 135.724 211.748 134.845 212.132 133.99Z" fill="#F7A18A"/>
        <path d="M228.755 174.778C228.755 174.778 233.228 174.233 235.623 172.125C238.009 170.016 244.992 171.798 246.213 173.45C247.425 175.105 244.838 179.03 243.626 178.74C242.414 178.45 243.857 177.65 244.231 176.922C244.616 176.196 244.694 175.468 244.087 174.959C243.472 174.451 243.174 176.268 241.654 176.996C240.134 177.722 236.873 178.522 235.286 177.868C233.689 177.213 230.121 178.086 230.121 178.086L228.755 174.778Z" fill="#C64C5A"/>
        <path d="M184.709 162.204C183.94 164.013 184.036 166.078 184.084 168.062C184.228 173.482 186.364 179.086 192.183 180.921C203.265 184.411 219.501 182.23 222.993 181.503C226.485 180.777 231.179 180.194 230.881 178.159C230.583 176.123 231.034 172.667 228.611 172.504C226.177 172.342 204.178 177.141 198.868 169.58C196.637 166.415 195.319 161.732 192.28 159.187C190.144 157.402 187.248 158.82 185.7 160.615C185.268 161.115 184.95 161.648 184.709 162.204Z" fill="#ED970E"/>
        <path d="M184.055 154.461C184.055 154.461 186.306 151.621 188.672 152.33C191.029 153.04 196.598 157.063 196.598 158.01C196.598 158.956 195.579 162.032 195.579 162.032L184.055 154.461Z" fill="#F8CE8C"/>
        <path d="M183.026 153.475C183.026 153.475 175.61 152.212 169.146 162.939C162.672 173.666 157.035 189.127 156.304 193.544C155.573 197.962 155.891 202.852 157.631 203.956C159.363 205.06 183.026 208.374 187.123 207.427C191.231 206.481 191.231 202.425 191.231 202.425C191.231 202.425 199.186 170.195 197.339 164.517C195.492 158.838 187.594 154.105 183.026 153.475Z" fill="#ED970E"/>
        <path d="M170.559 204.333C170.559 204.333 179.909 161.796 184.055 163.865C188.192 165.936 195.069 168.91 195.579 170.677C196.088 172.445 188.172 202.688 188.172 202.688L187.22 202.777C187.22 202.777 195.213 170.591 194.703 170.195C194.184 169.803 184.113 164.458 183.459 165.05C182.815 165.641 178.371 177.296 175.889 186.169C173.407 195.044 171.867 204.333 171.867 204.333H170.559Z" fill="#ED970E"/>
        <path d="M177.207 163.865C177.207 163.865 174.186 173.825 180.025 185.341C185.864 196.857 191.529 201.189 191.529 201.189L195.579 182.527L177.207 163.865Z" fill="#ED970E"/>
        <path d="M177.774 161.564C176.975 163.525 177.081 165.765 177.129 167.919C177.273 173.8 179.496 179.879 185.556 181.87C197.069 185.656 213.951 183.29 217.577 182.501C221.204 181.713 226.09 181.082 225.782 178.873C225.465 176.665 225.936 172.915 223.416 172.739C220.886 172.563 198.013 177.769 192.491 169.566C190.183 166.132 188.807 161.05 185.652 158.289C183.43 156.353 180.409 157.89 178.803 159.839C178.351 160.38 178.024 160.96 177.774 161.564Z" fill="#ED970E"/>
        <path d="M200.849 151.029L194.54 149.845L197.464 155.693L200.849 151.029Z" fill="#C64C5A"/>
        <path d="M213.633 127.207C213.557 127.713 213.23 127.819 212.7 127.737C211.143 127.495 207.775 125.662 203.139 127.365C198.916 128.914 197.56 135.318 196.646 139.899C196.223 142.078 195.896 143.844 195.406 144.48C193.915 146.454 187.97 146.916 184.902 145.271C181.834 143.624 181.448 127.68 185.94 121.054C190.442 114.428 200.378 116.557 200.378 116.557C209.18 116.139 213.95 125.235 213.633 127.207Z" fill="#ED970E"/>
        <path d="M206.736 146.555C206.458 146.555 206.121 146.543 205.755 146.509C204.563 146.395 204.12 145.284 204.101 145.238C204.053 145.116 204.12 144.978 204.236 144.932C204.361 144.884 204.495 144.945 204.544 145.066C204.553 145.102 204.9 145.951 205.803 146.038C206.823 146.134 207.602 146.04 207.602 146.039C207.737 146.02 207.853 146.113 207.871 146.243C207.891 146.372 207.795 146.491 207.67 146.508C207.641 146.51 207.295 146.555 206.736 146.555Z" fill="#C64C5A"/>
        <path d="M209.266 135.686C209.266 136.296 208.949 136.79 208.564 136.79C208.19 136.79 207.871 136.296 207.871 135.686C207.871 135.077 208.19 134.582 208.564 134.582C208.949 134.582 209.266 135.077 209.266 135.686Z" fill="#364563"/>
        <path d="M206.852 133.707C207.353 133.104 208.132 132.388 208.959 132.883C209.344 133.119 209.709 132.506 209.315 132.271C208.208 131.603 207.073 132.338 206.352 133.205C206.064 133.554 206.564 134.059 206.852 133.707Z" fill="#364563"/>
        <path d="M210.219 142.807C210.633 142.388 211.373 141.636 211.624 141.386C211.979 141.031 211.498 140.261 211.027 139.788C210.931 139.688 210.873 139.488 210.844 139.233H213.528C213.287 141.058 213.047 142.133 212.642 142.532C212.479 142.693 211.556 142.801 210.219 142.807ZM213.931 135.666H211.392C211.632 135.106 211.883 134.543 212.133 133.99C212.739 132.66 213.239 130.175 212.701 127.737C212.73 127.742 212.749 127.744 212.778 127.747C213.191 128.705 214.365 131.822 213.97 135.356C213.96 135.46 213.951 135.564 213.931 135.666Z" fill="#FEFEFE"/>
        <path d="M213.528 139.233H210.844C210.738 138.294 211.017 136.623 211.027 136.582C211.143 136.28 211.268 135.972 211.392 135.666H213.931C213.777 137.077 213.653 138.261 213.528 139.233Z" fill="#ECEFF8"/>
        <path d="M210.084 142.808C206.419 142.808 199.802 142.072 196.695 139.686C197.598 135.121 198.984 128.891 203.139 127.365C204.582 126.836 205.9 126.648 207.083 126.648C209.689 126.648 211.632 127.57 212.701 127.737C213.24 130.175 212.739 132.66 212.133 133.99C211.883 134.543 211.632 135.106 211.392 135.666C211.268 135.972 211.143 136.28 211.027 136.582C211.017 136.623 210.738 138.294 210.844 139.233C210.873 139.488 210.931 139.688 211.027 139.788C211.498 140.261 211.979 141.031 211.624 141.386C211.373 141.636 210.633 142.388 210.219 142.807C210.18 142.808 210.133 142.808 210.084 142.808ZM208.564 134.582C208.19 134.582 207.871 135.077 207.871 135.686C207.871 136.296 208.19 136.791 208.564 136.791C208.949 136.791 209.267 136.296 209.267 135.686C209.267 135.077 208.949 134.582 208.564 134.582ZM208.41 132.012C207.622 132.012 206.881 132.573 206.352 133.205C206.131 133.471 206.372 133.828 206.621 133.828C206.699 133.828 206.785 133.791 206.852 133.707C207.237 133.245 207.785 132.717 208.391 132.717C208.574 132.717 208.766 132.767 208.959 132.883C209.017 132.92 209.074 132.937 209.132 132.937C209.44 132.937 209.642 132.469 209.315 132.271C209.017 132.089 208.708 132.012 208.41 132.012Z" fill="#FCDBCE"/>
        <path d="M196.695 139.686C196.656 139.66 196.627 139.634 196.598 139.608C197.503 135.027 198.859 128.623 203.082 127.073C204.524 126.545 205.842 126.357 207.016 126.357C209.632 126.357 211.566 127.278 212.643 127.445C212.643 127.445 212.691 127.551 212.778 127.747C212.749 127.745 212.73 127.742 212.701 127.737C211.632 127.57 209.689 126.648 207.083 126.648C205.9 126.648 204.583 126.836 203.139 127.365C198.984 128.891 197.598 135.121 196.695 139.686Z" fill="#C2E4D7"/>
        <path d="M208.564 136.79C208.19 136.79 207.871 136.296 207.871 135.686C207.871 135.077 208.19 134.582 208.564 134.582C208.949 134.582 209.266 135.077 209.266 135.686C209.266 136.296 208.949 136.79 208.564 136.79Z" fill="#A09FB2"/>
        <path d="M206.621 133.828C206.371 133.828 206.131 133.471 206.352 133.205C206.881 132.573 207.622 132.012 208.41 132.012C208.708 132.012 209.017 132.089 209.315 132.271C209.642 132.469 209.44 132.937 209.132 132.937C209.074 132.937 209.017 132.92 208.959 132.883C208.766 132.767 208.574 132.717 208.391 132.717C207.785 132.717 207.236 133.245 206.852 133.707C206.785 133.791 206.698 133.828 206.621 133.828Z" fill="#A09FB2"/>
        <path d="M240.403 257.14C240.403 257.14 242.471 259.269 242.779 259.792C243.087 260.315 244.54 262.237 245.319 262.144C246.107 262.05 251.254 259.768 252.052 258.925C252.841 258.083 257.852 256.418 259.247 255.54C260.651 254.663 260.449 252.332 259.487 251.809C258.525 251.286 255.534 252.973 254.284 253.4C253.024 253.827 250.109 253.953 248.492 254.317C246.877 254.681 245.559 254.752 244.914 254.417C244.27 254.083 243.732 253.726 243.732 253.726L240.403 257.14Z" fill="#96B3DD"/>
        <path d="M188.172 202.632C188.172 202.632 203.456 200.345 206.775 202.632C210.084 204.919 243.799 252.586 243.799 253.484C243.799 254.381 240.961 257.185 240.49 257.185C240.018 257.185 223.329 247.765 213.508 233.296C203.697 218.826 204.524 218.267 202.033 218.603C199.551 218.94 176.167 219.724 177.091 214.677C178.015 209.63 188.172 202.632 188.172 202.632Z" fill="#364563"/>
        <path d="M225.407 261.364C225.407 261.364 227.149 263.747 227.264 264.336C227.389 264.925 228.11 267.181 228.889 267.329C229.659 267.476 235.315 266.859 236.345 266.299C237.383 265.738 242.683 265.661 244.309 265.252C245.934 264.84 246.521 262.569 245.79 261.784C245.039 261 241.644 261.7 240.307 261.728C238.979 261.756 236.171 261 234.517 260.859C232.862 260.719 231.583 260.389 231.083 259.878C230.583 259.366 230.197 258.868 230.197 258.868L225.407 261.364Z" fill="#96B3DD"/>
        <path d="M157.631 203.834C157.631 203.834 151.322 225.669 166.308 225.669C181.295 225.669 200.696 222.395 201.167 224.255C201.639 226.117 203.697 233.744 208.901 242.867C214.104 251.989 223.416 262.159 225.147 262.159C226.888 262.159 231.14 259.765 230.668 258.868C230.197 257.97 210.787 208.022 206.689 205.33C202.591 202.638 195.646 201.443 182.872 203.237C170.088 205.031 157.631 203.834 157.631 203.834Z" fill="#3B56A0"/>
        <path d="M263.653 295.352L263.479 294.943L305.514 277.324L305.687 277.732L263.653 295.352Z" fill="#96B3DD"/>
        <path d="M305.592 295.176L263.412 277.91L263.575 277.5L305.755 294.766L305.592 295.176Z" fill="#96B3DD"/>
        <path d="M276.08 307.483L275.666 307.313L293.087 265.192L293.501 265.361L276.08 307.483Z" fill="#96B3DD"/>
        <path d="M293.106 307.474L275.648 265.37L276.051 265.202L293.519 307.304L293.106 307.474Z" fill="#96B3DD"/>
        <path d="M284.583 309.128C271.992 309.128 261.796 298.924 261.796 286.338C261.796 273.75 271.992 263.546 284.583 263.546C297.175 263.546 307.371 273.75 307.371 286.338C307.371 298.924 297.175 309.128 284.583 309.128ZM284.583 257.771C268.808 257.771 256.014 270.56 256.014 286.338C256.014 302.115 268.808 314.905 284.583 314.905C300.359 314.905 313.152 302.115 313.152 286.338C313.152 270.56 300.359 257.771 284.583 257.771Z" fill="#395476"/>
        <path d="M284.141 309.128H285.029V263.546H284.141V309.128Z" fill="#96B3DD"/>
        <path d="M261.796 286.78H307.379V285.895H261.796V286.78Z" fill="#96B3DD"/>
        <path d="M300.388 302.766L268.154 270.535L268.78 269.908L301.013 302.14L300.388 302.766Z" fill="#96B3DD"/>
        <path d="M268.78 302.766L268.154 302.14L300.388 269.908L301.013 270.535L268.78 302.766Z" fill="#96B3DD"/>
        <path d="M268.154 266.038L284.208 286.706L285.834 285.673L278.158 262.79L268.154 266.038Z" fill="#96B3DD"/>
        <path d="M287.546 286.06C287.546 287.696 286.219 289.022 284.583 289.022C282.948 289.022 281.621 287.696 281.621 286.06C281.621 284.425 282.948 283.099 284.583 283.099C286.219 283.099 287.546 284.425 287.546 286.06Z" fill="#395476"/>
        <path d="M181.131 232.599H102.736C100.841 232.599 99.3022 231.062 99.3022 229.167C99.3022 227.27 100.841 225.734 102.736 225.734H181.131C183.025 225.734 184.565 227.27 184.565 229.167C184.565 231.062 183.025 232.599 181.131 232.599Z" fill="#F8CE8C"/>
        <path d="M281.996 246.254C278.755 249.946 266.057 248.026 261.921 254.967C257.785 261.904 253.062 276.52 247.752 277.111C242.433 277.7 101.543 277.111 101.543 277.111V232.598H181.91C181.91 232.598 189.432 260.945 194.53 265.151C199.619 269.36 234.613 266.923 240.365 263.38C245.088 260.478 249.407 252.023 249.917 241.753C250.032 239.489 249.955 237.138 249.666 234.739C248.041 221.452 239.037 187.203 239.625 183.512C240.221 179.82 243.02 173.471 247.598 171.996C252.177 170.52 256.756 171.847 256.9 171.996C257.054 172.143 257.641 181.149 256.9 182.33C256.16 183.512 253.36 184.987 253.36 187.497C253.36 190.006 269.896 216.432 275.503 225.735C281.111 235.035 285.247 242.564 281.996 246.254Z" fill="#ED970E"/>
        <path d="M260.536 177.273C260.536 180.189 258.91 182.551 256.9 182.551C254.889 182.551 253.264 180.189 253.264 177.273C253.264 174.359 254.889 171.995 256.9 171.995C258.91 171.995 260.536 174.359 260.536 177.273Z" fill="#F8CE8C"/>
        <path d="M263.546 230.458C263.546 230.458 272.107 235.774 269.895 239.021C267.683 242.269 260.449 238.874 258.968 234.739C257.496 230.606 261.113 228.734 263.546 230.458Z" fill="#F8CE8C"/>
        <path d="M252.975 283.646C251.34 281.475 250.427 276.674 251.398 274.158C253.61 268.431 259.141 260.211 268.346 254.227C281.659 245.574 299.762 251.569 303.581 255.262C306.063 257.661 308.092 261.942 307.13 265.385C307.063 265.649 306.957 265.929 306.717 266.085C306.505 266.231 306.217 266.241 305.957 266.242C296.059 266.281 286.651 264.603 277.196 268.696C264.229 274.306 256.294 288.036 254.62 285.821C254.11 285.15 253.534 284.386 252.975 283.646Z" fill="#F8CE8C"/>
        <path d="M137.788 150.883H86.0754C84.5079 150.883 83.2481 149.621 83.2481 148.062V145.922C83.2481 144.362 84.5079 143.099 86.0754 143.099H137.788C139.336 143.099 140.606 144.362 140.606 145.922V148.062C140.606 149.621 139.336 150.883 137.788 150.883Z" fill="#FED391"/>
        <path d="M86.9027 167.271H135.82V150.884H86.9027V167.271Z" fill="#F69986"/>
        <path d="M116.28 157.123H106.574C105.554 157.123 104.727 156.297 104.727 155.276C104.727 154.255 105.554 153.428 106.574 153.428H116.28C117.299 153.428 118.127 154.255 118.127 155.276C118.127 156.297 117.299 157.123 116.28 157.123Z" fill="#D66652"/>
        <path d="M111.037 168.231C109.652 168.231 108.526 167.107 108.526 165.721V143.134C108.526 141.747 109.652 140.624 111.037 140.624C112.431 140.624 113.548 141.747 113.548 143.134V165.721C113.548 167.107 112.431 168.231 111.037 168.231Z" fill="#D66652"/>
        <path d="M149.792 225.734H75.1679C72.7247 225.734 70.7335 223.748 70.7335 221.299V171.707C70.7335 169.257 72.7247 167.271 75.1679 167.271H149.792C152.235 167.271 154.226 169.257 154.226 171.707V221.299C154.226 223.748 152.235 225.734 149.792 225.734Z" fill="#FED391"/>
        <path d="M92.1547 186.021H78.3995C77.5152 186.021 76.7933 185.298 76.7933 184.408V178.776C76.7933 177.885 77.5152 177.163 78.3995 177.163H92.1547C93.0497 177.163 93.7706 177.885 93.7706 178.776V184.408C93.7706 185.298 93.0497 186.021 92.1547 186.021Z" fill="#F69986"/>
        <path d="M146.185 220.567H121.07C120.175 220.567 119.453 219.845 119.453 218.955V205.438C119.453 204.548 120.175 203.825 121.07 203.825H146.185C147.08 203.825 147.801 204.548 147.801 205.438V218.955C147.801 219.845 147.08 220.567 146.185 220.567Z" fill="#F69986"/>
        <path d="M144.415 218.883H122.84C121.955 218.883 121.234 218.162 121.234 217.271V207.121C121.234 206.23 121.955 205.508 122.84 205.508H144.415C145.31 205.508 146.031 206.23 146.031 207.121V217.271C146.031 218.162 145.31 218.883 144.415 218.883Z" fill="#FEFEFE"/>
        <path d="M91.0778 204.333H78.1499C77.399 204.333 76.7933 203.725 76.7933 202.973C76.7933 202.223 77.399 201.616 78.1499 201.616H91.0778C91.8277 201.616 92.4334 202.223 92.4334 202.973C92.4334 203.725 91.8277 204.333 91.0778 204.333Z" fill="#F69986"/>
        <path d="M83.9215 210.971H78.1499C77.399 210.971 76.7933 210.363 76.7933 209.613C76.7933 208.862 77.399 208.254 78.1499 208.254H83.9215C84.6714 208.254 85.2771 208.862 85.2771 209.613C85.2771 210.363 84.6714 210.971 83.9215 210.971Z" fill="#F69986"/>
        <path d="M145.56 179.631H124.023C123.272 179.631 122.667 179.023 122.667 178.273C122.667 177.523 123.272 176.914 124.023 176.914H145.56C146.31 176.914 146.916 177.523 146.916 178.273C146.916 179.023 146.31 179.631 145.56 179.631Z" fill="#F69986"/>
        <path d="M134.46 186.269H124.023C123.272 186.269 122.667 185.661 122.667 184.91C122.667 184.161 123.272 183.553 124.023 183.553H134.46C135.209 183.553 135.815 184.161 135.815 184.91C135.815 185.661 135.209 186.269 134.46 186.269Z" fill="#F69986"/>
        <path d="M111.037 234.15C109.652 234.15 108.526 233.026 108.526 231.639V168.748C108.526 167.362 109.652 166.238 111.037 166.238C112.431 166.238 113.548 167.362 113.548 168.748V231.639C113.548 233.026 112.431 234.15 111.037 234.15Z" fill="#F69986"/>
        <path d="M239.374 177.258L247.367 177.032C247.685 177.024 247.955 177.281 247.955 177.602V177.829C247.955 178.143 247.694 178.4 247.387 178.4H239.384C239.076 178.4 238.817 178.143 238.817 177.829C238.817 177.52 239.057 177.267 239.374 177.258Z" fill="#4F4E4D"/>
        <path d="M101.543 237.409H163.711C165.423 237.409 166.895 238.595 167.26 240.259L175.389 277.324H105.227L101.543 237.409Z" fill="#4F4E4D"/>
        <path d="M174.157 283.099H102.784C100.331 283.099 98.3396 281.113 98.3396 278.664V268.923C98.3396 266.473 100.331 264.49 102.784 264.49H174.157C176.6 264.49 178.591 266.473 178.591 268.923V278.664C178.591 281.113 176.6 283.099 174.157 283.099Z" fill="#F8CE8C"/>
        <path d="M163.307 246.517V285.083C163.307 288.506 160.527 291.283 157.103 291.283H88.2303C84.806 291.283 82.0358 288.506 82.0358 285.083V246.517C82.0358 243.093 84.806 240.316 88.2303 240.316H157.103C160.527 240.316 163.307 243.093 163.307 246.517Z" fill="#F69986"/>
        <path d="M163.307 248.026V253.828C163.307 261.326 157.257 267.403 149.792 267.403H95.5413C88.0764 267.403 82.0358 261.326 82.0358 253.828V248.026C82.0358 244.585 84.806 241.794 88.2303 241.794H157.103C160.527 241.794 163.307 244.585 163.307 248.026Z" fill="#D66652"/>
        <path d="M93.3576 286.312H87.3547C86.7683 286.312 86.2874 285.833 86.2874 285.241C86.2874 284.649 86.7683 284.169 87.3547 284.169H93.3576C93.9536 284.169 94.4345 284.649 94.4345 285.241C94.4345 285.833 93.9536 286.312 93.3576 286.312Z" fill="#D66652"/>
        <path d="M104.15 286.312H98.1481C97.5511 286.312 97.0702 285.833 97.0702 285.241C97.0702 284.649 97.5511 284.169 98.1481 284.169H104.15C104.746 284.169 105.227 284.649 105.227 285.241C105.227 285.833 104.746 286.312 104.15 286.312Z" fill="#D66652"/>
        <path d="M114.942 286.312H108.94C108.343 286.312 107.863 285.833 107.863 285.241C107.863 284.649 108.343 284.169 108.94 284.169H114.942C115.529 284.169 116.011 284.649 116.011 285.241C116.011 285.833 115.529 286.312 114.942 286.312Z" fill="#D66652"/>
        <path d="M125.725 286.312H119.723C119.136 286.312 118.655 285.833 118.655 285.241C118.655 284.649 119.136 284.169 119.723 284.169H125.725C126.321 284.169 126.803 284.649 126.803 285.241C126.803 285.833 126.321 286.312 125.725 286.312Z" fill="#D66652"/>
        <path d="M136.518 286.312H130.516C129.919 286.312 129.438 285.833 129.438 285.241C129.438 284.649 129.919 284.169 130.516 284.169H136.518C137.115 284.169 137.586 284.649 137.586 285.241C137.586 285.833 137.115 286.312 136.518 286.312Z" fill="#D66652"/>
        <path d="M147.31 286.312H141.298C140.712 286.312 140.231 285.833 140.231 285.241C140.231 284.649 140.712 284.169 141.298 284.169H147.31C147.897 284.169 148.378 284.649 148.378 285.241C148.378 285.833 147.897 286.312 147.31 286.312Z" fill="#D66652"/>
        <path d="M158.093 286.312H152.091C151.495 286.312 151.024 285.833 151.024 285.241C151.024 284.649 151.495 284.169 152.091 284.169H158.093C158.69 284.169 159.171 284.649 159.171 285.241C159.171 285.833 158.69 286.312 158.093 286.312Z" fill="#D66652"/>
        <path d="M163.307 246.517V252.29C163.307 259.751 157.257 265.8 149.792 265.8H95.5413C88.0764 265.8 82.0358 259.751 82.0358 252.29V246.517C82.0358 243.093 84.806 240.316 88.2303 240.316H157.103C160.527 240.316 163.307 243.093 163.307 246.517Z" fill="#FED391"/>
        <path d="M160.979 252.712C160.421 252.712 159.979 252.261 159.979 251.705V247.673C159.979 247.117 160.421 246.665 160.979 246.665C161.536 246.665 161.989 247.117 161.989 247.673V251.705C161.989 252.261 161.536 252.712 160.979 252.712Z" fill="#F69986"/>
        <path d="M151.322 264.228C150.85 264.228 150.436 263.905 150.331 263.434C150.216 262.889 150.562 262.353 151.11 262.235C153.659 261.683 155.958 260.378 157.564 258.561C157.929 258.145 158.575 258.105 158.988 258.476C159.402 258.846 159.44 259.482 159.075 259.9C157.179 262.033 154.505 263.563 151.534 264.205C151.466 264.221 151.388 264.228 151.322 264.228ZM94.0308 264.231C93.9534 264.231 93.8867 264.223 93.8189 264.208C90.8465 263.568 88.1634 262.042 86.2679 259.911C85.9022 259.494 85.9409 258.857 86.355 258.487C86.7681 258.117 87.4029 258.154 87.7783 258.571C89.3942 260.386 91.6835 261.687 94.2418 262.237C94.7807 262.355 95.1271 262.891 95.012 263.436C94.9055 263.908 94.4924 264.231 94.0308 264.231ZM110.383 264.554H102.197C101.639 264.554 101.187 264.103 101.187 263.546C101.187 262.99 101.639 262.539 102.197 262.539H110.383C110.94 262.539 111.393 262.99 111.393 263.546C111.393 264.103 110.94 264.554 110.383 264.554ZM126.764 264.554H118.578C118.02 264.554 117.568 264.103 117.568 263.546C117.568 262.99 118.02 262.539 118.578 262.539H126.764C127.322 262.539 127.774 262.99 127.774 263.546C127.774 264.103 127.322 264.554 126.764 264.554ZM143.155 264.554H134.96C134.401 264.554 133.95 264.103 133.95 263.546C133.95 262.99 134.401 262.539 134.96 262.539H143.155C143.713 262.539 144.165 262.99 144.165 263.546C144.165 264.103 143.713 264.554 143.155 264.554Z" fill="#F69986"/>
        <path d="M84.3541 252.712C83.7958 252.712 83.3439 252.261 83.3439 251.705V247.673C83.3439 247.117 83.7958 246.665 84.3541 246.665C84.9114 246.665 85.3546 247.117 85.3546 247.673V251.705C85.3546 252.261 84.9114 252.712 84.3541 252.712Z" fill="#F69986"/>
        <path d="M125.052 268.363H120.406C119.146 268.363 118.136 267.347 118.136 266.094C118.136 264.839 119.146 263.824 120.406 263.824H125.052C126.303 263.824 127.322 264.839 127.322 266.094C127.322 267.347 126.303 268.363 125.052 268.363Z" fill="#FEFEFE"/>
        <path d="M274.513 227.774C272.588 227.774 265.5 225.094 262.729 222.583C259.901 220.016 253.264 191.537 253.264 191.537C254.986 193.759 276.349 227.645 274.628 227.771C274.589 227.772 274.551 227.774 274.513 227.774Z" fill="#F8CE8C"/>
        <path d="M250.33 241.809C250.33 241.809 249.436 260.681 245.463 264.489C241.5 268.295 198.647 270.924 194.165 269.908C189.683 268.893 178.591 235.067 178.591 235.067H101.543V232.598H181.91C181.91 232.598 189.432 260.945 194.53 265.151C199.619 269.36 234.613 266.923 240.365 263.38C245.088 260.478 249.407 252.023 249.917 241.753L250.33 241.809Z" fill="#4F4E4D"/>
        <path d="M323.665 91.1601V157.663C323.665 159.281 322.386 160.592 320.818 160.592H230.602C229.804 160.592 229.082 160.25 228.562 159.701C228.062 159.172 227.764 158.454 227.764 157.663V91.1601C227.764 90.3667 228.062 89.6487 228.562 89.1224C229.082 88.5728 229.804 88.2312 230.602 88.2312H320.818C322.386 88.2312 323.665 89.5423 323.665 91.1601Z" fill="#ED970E"/>
        <path d="M320.529 94.4141V154.74C320.529 156.208 319.337 157.397 317.875 157.397H233.555C232.804 157.397 232.121 157.087 231.64 156.589C231.178 156.108 230.9 155.456 230.9 154.74V94.4141C230.9 93.6951 231.178 93.043 231.64 92.565C232.121 92.0667 232.804 91.7571 233.555 91.7571H317.875C319.337 91.7571 320.529 92.9462 320.529 94.4141Z" fill="#E9EDF7"/>
        <path d="M289.604 109.874L278.177 120.003L278.187 120.008L263.085 133.293L295.174 157.397H289.72L260.575 135.502L235.69 157.397H233.555C232.804 157.397 232.121 157.087 231.64 156.589L273.098 120.123L237.758 91.7571H242.991L275.59 117.924L305.091 91.7571H310.036L292.134 107.632L320.529 126.948V130.911L289.604 109.874Z" fill="#FEFEFE"/>
        <path d="M275.003 131.85L289.306 118.932C289.691 118.581 290.278 118.548 290.701 118.851L313.248 134.919C313.815 135.32 313.883 136.132 313.392 136.618L298.656 151.287C298.252 151.687 297.608 151.721 297.165 151.364L275.041 133.546C274.513 133.116 274.484 132.309 275.003 131.85Z" fill="#CDDDF2"/>
        <path d="M247.262 155.431L261.093 143.676C261.498 143.338 262.066 143.322 262.489 143.634L278.148 155.389C278.995 156.033 278.552 157.397 277.474 157.397H247.983C246.944 157.397 246.463 156.103 247.262 155.431Z" fill="#ED970E"/>
        <path d="M251.523 112.854L232.669 126.566C231.929 127.101 230.9 126.575 230.9 125.662V94.3928C230.9 93.4358 232.073 92.9617 232.775 93.6119L251.628 111.135C252.138 111.613 252.09 112.441 251.523 112.854Z" fill="#CDDDF2"/>
        <path d="M258.16 127.404L251.301 119.859C250.908 119.421 250.234 119.369 249.773 119.739L242.818 125.321C242.308 125.726 242.251 126.473 242.693 126.948L249.773 134.617C250.176 135.056 250.849 135.098 251.311 134.712L258.054 129.005C258.535 128.597 258.583 127.871 258.16 127.404Z" fill="#ED970E"/>
        <path d="M260.68 126.784L265.605 122.614C266.134 122.169 266.134 121.358 265.605 120.911L257.9 114.385C257.487 114.041 256.9 114.032 256.477 114.366L252.427 117.61C251.926 118.014 251.869 118.758 252.302 119.234C254.505 121.638 256.967 124.33 259.131 126.688C259.545 127.129 260.219 127.171 260.68 126.784Z" fill="#ED970E"/>
        <path d="M238.903 128.455L231.313 134.539C231.054 134.751 230.9 135.07 230.9 135.409V149.585C230.9 150.535 232.006 151.051 232.728 150.436L247.637 137.823C248.128 137.409 248.165 136.665 247.723 136.2L240.403 128.555C240.009 128.136 239.355 128.093 238.903 128.455Z" fill="#ED970E"/>
        <path d="M296.809 93.7271C289.133 100.167 279.129 108.589 276.417 110.874C276.003 111.217 275.407 111.222 274.994 110.885L253.88 93.7387C253.071 93.0759 253.534 91.7571 254.591 91.7571H296.098C297.136 91.7571 297.608 93.0575 296.809 93.7271Z" fill="#CDDDF2"/>
        <path d="M320.529 92.8737V119.247C320.529 120.141 319.53 120.673 318.789 120.172C312.989 116.256 302.812 109.545 299.358 107.266C298.753 106.868 298.675 106.009 299.214 105.517C301.907 103.024 309.237 96.2738 313.931 92.0435C314.134 91.8587 314.393 91.7571 314.672 91.7571H319.414C320.03 91.7571 320.529 92.2563 320.529 92.8737Z" fill="#ED970E"/>
        <path d="M275.715 87.3604C273.752 87.3604 272.165 85.7697 272.165 83.8074C272.165 81.8451 273.752 80.2544 275.715 80.2544C277.677 80.2544 279.264 81.8451 279.264 83.8074C279.264 85.7697 277.677 87.3604 275.715 87.3604ZM275.907 74.8505C260.055 74.8505 270.819 94.6076 274.685 100.94C275.234 101.846 276.551 101.833 277.081 100.915C280.784 94.5573 291.009 74.8505 275.907 74.8505Z" fill="#ED970E"/>
        <path d="M343.721 320.072H42.6743C41.7803 320.072 41.0585 319.351 41.0585 318.459V316.518C41.0585 315.627 41.7803 314.905 42.6743 314.905H343.721C344.615 314.905 345.337 315.627 345.337 316.518V318.459C345.337 319.351 344.615 320.072 343.721 320.072Z" fill="#96B3DD"/>
        <path d="M215.268 334.167H69.4735C68.5882 334.167 67.8673 333.445 67.8673 332.554V330.613C67.8673 329.721 68.5882 329 69.4735 329H215.268C216.163 329 216.884 329.721 216.884 330.613V332.554C216.884 333.445 216.163 334.167 215.268 334.167Z" fill="#E9EDF7"/>
        <path d="M314.835 334.167H234.478C233.583 334.167 232.862 333.445 232.862 332.554V330.613C232.862 329.721 233.583 329 234.478 329H314.835C315.73 329 316.451 329.721 316.451 330.613V332.554C316.451 333.445 315.73 334.167 314.835 334.167Z" fill="#E9EDF7"/>
        <path d="M242.759 348.264H162.393C161.508 348.264 160.787 347.542 160.787 346.651V344.709C160.787 343.817 161.508 343.095 162.393 343.095H242.759C243.645 343.095 244.367 343.817 244.367 344.709V346.651C244.367 347.542 243.645 348.264 242.759 348.264Z" fill="#E9EDF7"/>
        <path d="M225.436 175.116C225.436 175.116 227.937 174.97 230.419 172.682C232.91 170.395 240.163 172.327 241.423 174.122C242.693 175.917 240.009 180.176 238.749 179.861C237.489 179.545 238.979 178.678 239.374 177.889C239.769 177.1 239.855 176.311 239.22 175.758C238.585 175.208 238.278 177.179 236.691 177.968C235.122 178.757 231.727 179.625 230.073 178.914C228.408 178.204 225.782 178.873 225.782 178.873L225.436 175.116Z" fill="#F7A18A"/>
        <path d="M241.741 177.88C241.741 179.14 240.721 180.162 239.461 180.162C238.2 180.162 237.18 179.14 237.18 177.88C237.18 176.621 238.2 175.599 239.461 175.599C240.721 175.599 241.741 176.621 241.741 177.88Z" fill="#F8CE8C"/>
    </g>
    <defs>
        <clipPath id="clip0_2:4246">
            <rect width="400" height="365.747" fill="white"/>
        </clipPath>
    </defs>
</svg>
